<?xml version="1.0" standalone="no"?>
<!DOCTYPE svg PUBLIC "-//W3C//DTD SVG 20010904//EN"
 "http://www.w3.org/TR/2001/REC-SVG-20010904/DTD/svg10.dtd">
<svg version="1.0" xmlns="http://www.w3.org/2000/svg"
 width="512.000000pt" height="512.000000pt" viewBox="0 0 512.000000 512.000000"
 preserveAspectRatio="xMidYMid meet">

<g transform="translate(0.000000,512.000000) scale(0.100000,-0.100000)"
fill="" stroke="none">
<path d="M2477 5106 c-187 -70 -231 -304 -82 -434 18 -17 43 -33 54 -37 21 -6
21 -12 21 -271 l0 -264 -170 0 -170 0 0 270 0 271 -25 24 c-27 27 -79 33 -106
12 -36 -28 -39 -52 -39 -316 l0 -261 -170 0 -169 0 -3 328 -3 329 -28 36 c-44
58 -71 67 -199 67 l-114 0 -34 52 c-51 76 -113 112 -204 116 -113 6 -196 -44
-242 -143 -46 -98 -28 -201 51 -282 65 -67 140 -92 225 -75 69 15 126 54 165
114 l30 47 93 0 92 1 0 -294 0 -293 -77 -6 c-92 -7 -147 -25 -208 -67 -85 -58
-132 -152 -142 -282 l-6 -78 -293 0 -294 0 1 93 0 92 47 30 c60 39 99 96 114
165 17 85 -8 160 -75 225 -81 79 -184 97 -282 51 -99 -46 -149 -129 -143 -242
4 -91 40 -153 116 -204 l52 -34 0 -108 c0 -127 12 -163 66 -204 l37 -29 329
-3 328 -3 0 -169 0 -170 -261 0 c-264 0 -288 -3 -316 -39 -21 -27 -15 -79 12
-106 l24 -25 271 0 270 0 0 -170 0 -170 -264 0 -264 0 -12 30 c-15 37 -81 97
-129 118 -45 19 -145 19 -191 0 -50 -21 -96 -63 -128 -117 -23 -39 -27 -57
-27 -121 0 -64 4 -82 27 -121 32 -54 78 -96 128 -117 46 -19 146 -19 191 0 48
21 114 81 129 118 l12 30 264 0 264 0 0 -170 0 -170 -270 0 -271 0 -24 -25
c-27 -27 -33 -79 -12 -106 28 -36 52 -39 316 -39 l261 0 0 -170 0 -169 -328
-3 -329 -3 -36 -28 c-55 -42 -62 -60 -67 -196 l-5 -124 -35 -20 c-52 -28 -77
-55 -105 -111 -45 -89 -31 -202 34 -277 130 -153 380 -97 437 98 31 107 -11
216 -108 278 l-47 30 0 93 -1 92 294 0 293 0 6 -77 c10 -131 55 -219 143 -282
58 -42 110 -59 205 -67 l79 -7 0 -293 0 -294 -92 1 -93 0 -30 47 c-39 60 -96
99 -165 114 -85 17 -160 -8 -225 -75 -79 -81 -97 -184 -51 -283 84 -180 335
-195 445 -26 l34 52 109 0 c127 0 163 11 204 66 l29 37 3 329 3 328 169 0 170
0 0 -261 c0 -264 3 -288 39 -316 27 -21 79 -15 106 12 l25 24 0 271 0 270 170
0 170 0 0 -264 0 -264 -30 -12 c-37 -15 -97 -81 -118 -129 -19 -45 -19 -145 0
-191 21 -50 63 -96 117 -128 39 -23 57 -27 121 -27 64 0 82 4 121 27 54 32 96
78 117 128 19 46 19 146 0 191 -21 48 -81 114 -118 129 l-30 12 0 264 0 264
170 0 170 0 0 -270 0 -271 25 -24 c27 -27 79 -33 106 -12 36 28 39 52 39 316
l0 261 170 0 169 0 3 -328 3 -329 28 -36 c42 -55 60 -61 196 -67 l124 -5 20
-35 c46 -84 125 -130 221 -130 178 1 295 161 244 334 -8 25 -32 61 -63 93 -65
67 -140 92 -225 75 -69 -15 -126 -54 -165 -114 l-30 -47 -92 0 -93 -1 0 294 0
293 79 7 c95 8 147 25 205 67 88 63 131 148 142 280 l7 79 293 0 294 0 -1 -92
0 -93 -47 -30 c-60 -39 -99 -96 -114 -165 -17 -85 8 -160 75 -225 32 -31 68
-55 93 -63 173 -51 334 66 334 244 0 96 -46 175 -130 221 l-35 20 -5 124 c-6
136 -12 154 -67 196 l-36 28 -329 3 -328 3 0 169 0 170 261 0 c264 0 288 3
316 39 21 27 15 79 -12 106 l-24 25 -271 0 -270 0 0 170 0 170 264 0 264 0 12
-30 c15 -37 81 -97 129 -118 45 -19 145 -19 191 0 50 21 96 63 128 117 23 39
27 57 27 121 0 64 -4 82 -27 121 -32 54 -78 96 -128 117 -46 19 -146 19 -191
0 -48 -21 -114 -81 -129 -118 l-12 -30 -264 0 -264 0 0 170 0 170 270 0 271 0
24 25 c27 27 33 79 12 106 -28 36 -52 39 -316 39 l-261 0 0 170 0 169 328 3
329 3 37 29 c55 41 66 77 66 204 l0 109 52 34 c169 110 154 361 -26 445 -99
46 -202 28 -283 -51 -67 -65 -92 -140 -75 -225 15 -69 54 -126 114 -165 l47
-30 0 -92 1 -93 -294 0 -293 0 -7 79 c-8 95 -25 147 -67 205 -63 88 -151 133
-281 143 l-78 6 0 293 0 294 93 -1 92 0 30 -47 c62 -97 171 -139 278 -108 195
57 251 307 98 437 -75 65 -188 79 -277 34 -56 -28 -83 -53 -111 -105 l-20 -35
-124 -5 c-136 -5 -154 -12 -196 -67 l-28 -36 -3 -329 -3 -328 -169 0 -170 0 0
261 c0 264 -3 288 -39 316 -27 21 -79 15 -106 -12 l-25 -24 0 -271 0 -270
-170 0 -170 0 0 264 0 264 30 12 c37 15 97 81 118 129 19 45 19 145 0 191 -21
50 -63 96 -114 126 -55 32 -150 41 -207 20z m138 -181 c38 -37 37 -88 -1 -122
-80 -73 -186 46 -109 122 15 16 36 25 55 25 19 0 40 -9 55 -25z m-1536 -82
c59 -48 22 -147 -54 -147 -74 0 -112 88 -60 139 29 30 83 33 114 8z m3076 -8
c32 -31 32 -75 1 -111 -53 -63 -155 -16 -142 65 11 70 92 96 141 46z m-3759
-679 c63 -53 16 -155 -65 -142 -45 7 -71 38 -71 83 0 72 80 108 136 59z m4439
-1 c50 -49 24 -130 -46 -141 -81 -13 -128 89 -65 142 36 31 80 31 111 -1z
m-1047 -236 c69 -14 117 -64 132 -133 7 -35 10 -432 8 -1256 l-3 -1205 -24
-41 c-13 -24 -41 -52 -65 -65 l-41 -24 -1205 -3 c-824 -2 -1221 1 -1256 8 -69
15 -119 63 -133 132 -15 68 -15 2388 0 2456 13 63 64 117 123 131 60 13 2402
14 2464 0z m-3468 -1307 c60 -76 -32 -172 -114 -118 -51 33 -45 109 11 137 41
20 78 14 103 -19z m4615 -5 c59 -84 -64 -177 -132 -101 -28 31 -29 73 -3 107
33 42 104 39 135 -6z m-4539 -1521 c58 -49 20 -146 -57 -146 -81 0 -110 130
-36 160 37 15 65 11 93 -14z m4447 -7 c25 -31 22 -85 -8 -114 -31 -32 -75 -32
-111 -1 -63 53 -16 155 65 142 20 -3 44 -15 54 -27z m-3754 -686 c46 -52 7
-133 -66 -133 -67 0 -105 74 -67 128 34 48 92 50 133 5z m3069 1 c47 -53 10
-134 -60 -134 -46 0 -76 24 -84 65 -16 87 84 135 144 69z m-1543 -76 c47 -41
28 -129 -30 -144 -59 -15 -109 27 -107 89 1 40 41 77 82 77 16 0 41 -10 55
-22z"/>
<path d="M1990 3312 c-19 -9 -42 -30 -52 -47 -15 -26 -318 -1360 -318 -1399 0
-25 43 -66 76 -72 24 -5 37 0 60 19 27 23 33 43 80 254 l50 228 161 3 161 2 7
-32 c55 -254 96 -423 109 -442 20 -32 66 -42 104 -22 33 17 42 34 42 76 0 43
-297 1365 -312 1390 -16 26 -78 60 -110 60 -13 0 -39 -8 -58 -18z m121 -575
c31 -139 54 -255 52 -259 -2 -5 -56 -8 -119 -8 -63 0 -114 3 -114 8 -1 21 115
521 120 516 3 -3 30 -119 61 -257z"/>
<path d="M2695 3318 c-32 -17 -45 -39 -45 -79 0 -29 6 -42 26 -58 23 -18 41
-21 125 -21 l99 0 0 -600 0 -600 -99 0 c-84 0 -102 -3 -125 -21 -19 -15 -26
-30 -26 -54 0 -92 12 -95 337 -95 290 0 307 3 331 54 17 33 9 69 -20 96 -19
17 -35 20 -125 20 l-103 0 0 600 0 600 103 0 c90 0 106 3 125 20 44 41 35 110
-18 137 -33 17 -555 18 -585 1z"/>
</g>
</svg>
