<?xml version="1.0" standalone="no"?>
<!DOCTYPE svg PUBLIC "-//W3C//DTD SVG 20010904//EN"
 "http://www.w3.org/TR/2001/REC-SVG-20010904/DTD/svg10.dtd">
<svg version="1.0" xmlns="http://www.w3.org/2000/svg"
 width="512.000000pt" height="512.000000pt" viewBox="0 0 512.000000 512.000000"
 preserveAspectRatio="xMidYMid meet">

<g transform="translate(0.000000,512.000000) scale(0.100000,-0.100000)"
fill="" stroke="none">
<path d="M2571 5016 c-49 -18 -106 -70 -130 -119 -26 -54 -27 -137 -2 -192 19
-43 85 -109 120 -120 20 -6 21 -13 21 -149 0 -136 1 -144 23 -164 30 -29 62
-28 92 3 24 23 25 29 25 165 0 138 0 141 23 149 70 27 137 128 136 206 -1 160
-161 274 -308 221z m140 -155 c20 -20 29 -39 29 -61 0 -45 -47 -90 -93 -90
-80 0 -115 93 -58 151 20 20 39 29 61 29 22 0 41 -9 61 -29z"/>
<path d="M4367 5016 c-87 -31 -146 -115 -150 -213 l-2 -56 -110 -63 c-113 -65
-145 -93 -145 -124 0 -29 39 -70 66 -70 14 0 78 31 142 68 l117 68 54 -28
c136 -71 298 4 330 153 38 176 -133 325 -302 265z m122 -141 c79 -40 46 -165
-44 -165 -39 0 -65 18 -81 55 -17 43 -3 90 35 110 34 18 55 18 90 0z"/>
<path d="M3319 4656 c-121 -35 -226 -126 -282 -243 -30 -64 -32 -75 -32 -178
0 -104 2 -114 33 -176 65 -135 183 -225 329 -250 154 -27 330 50 422 185 90
133 98 323 17 460 -42 71 -114 136 -194 174 -62 30 -85 35 -160 38 -53 2 -105
-2 -133 -10z m252 -163 c170 -95 203 -321 67 -460 -118 -120 -310 -116 -423 9
-57 63 -79 129 -73 217 6 79 33 136 89 191 88 86 232 104 340 43z"/>
<path d="M1161 4634 c-125 -63 -164 -220 -84 -337 66 -96 214 -125 308 -62
l36 25 121 -70 c67 -39 130 -70 140 -70 24 0 68 44 68 67 0 35 -30 62 -144
127 l-113 66 -1 53 c-1 93 -42 160 -125 202 -69 34 -136 34 -206 -1z m151
-125 c55 -29 53 -125 -3 -154 -55 -29 -102 -14 -125 41 -12 29 -12 39 0 68 8
19 22 39 33 45 24 14 69 14 95 0z"/>
<path d="M1957 4125 c-21 -8 -51 -25 -65 -37 -15 -13 -175 -180 -356 -373
-227 -241 -335 -364 -349 -394 -24 -54 -26 -151 -4 -203 24 -56 92 -124 145
-145 61 -23 145 -22 202 4 49 22 116 88 415 408 97 105 181 192 186 193 14 6
299 -72 299 -81 0 -4 -70 -129 -156 -278 -86 -148 -168 -297 -181 -331 -21
-50 -347 -605 -372 -630 -3 -4 -252 -73 -551 -154 -300 -80 -563 -154 -586
-163 -123 -54 -190 -207 -150 -343 20 -69 80 -140 150 -175 97 -50 114 -47
811 141 341 92 632 174 648 182 55 29 104 92 220 287 65 109 122 197 126 195
4 -2 65 -73 136 -158 70 -85 135 -163 142 -172 13 -15 10 -86 -27 -580 -23
-310 -40 -586 -37 -614 14 -136 123 -240 262 -252 83 -6 150 17 213 73 92 83
89 62 144 805 52 710 52 722 2 796 -14 20 -68 88 -120 150 -93 112 -94 114
-80 141 14 27 336 586 339 590 1 0 97 -21 212 -48 116 -27 228 -49 251 -49 48
0 97 15 140 44 50 34 692 724 716 769 16 31 22 61 22 112 1 60 -3 78 -30 125
-70 125 -229 174 -348 107 -35 -20 -197 -184 -488 -496 l-97 -105 -106 23
c-104 21 -108 23 -159 74 -40 40 -127 95 -372 235 l-321 183 -344 80 c-352 81
-413 89 -482 64z m448 -200 l328 -76 306 -175 c168 -97 318 -187 333 -201 34
-33 41 -63 25 -111 -8 -22 -126 -234 -264 -473 -306 -531 -288 -496 -274 -526
6 -13 63 -86 126 -163 64 -76 122 -155 130 -174 13 -31 10 -96 -30 -658 -25
-343 -48 -637 -50 -655 -7 -39 -46 -88 -88 -109 -42 -22 -108 -13 -152 20 -63
48 -62 41 -16 668 23 310 41 581 41 603 -1 38 -18 62 -291 390 -160 193 -300
368 -310 390 -41 87 -27 124 205 524 119 206 186 333 186 350 0 15 -9 36 -19
45 -20 18 -443 136 -487 136 -30 0 -34 -4 -324 -315 -133 -143 -255 -272 -272
-286 -95 -85 -232 7 -193 130 8 26 618 683 667 719 17 12 46 22 64 22 18 0
180 -34 359 -75z m2112 10 c14 -9 31 -33 40 -52 24 -58 10 -95 -61 -171 -34
-37 -178 -191 -319 -342 -142 -151 -271 -285 -289 -297 -17 -13 -44 -23 -59
-23 -23 0 -378 78 -386 84 -2 1 20 46 47 99 28 54 50 104 50 112 0 19 6 19
124 -6 67 -15 107 -19 123 -13 12 5 147 142 299 304 152 162 290 303 307 313
36 21 85 17 124 -8z m-2364 -1812 c-98 -162 -147 -232 -168 -245 -17 -9 -309
-92 -649 -183 -469 -126 -627 -165 -652 -160 -64 11 -124 82 -124 145 0 40 32
103 64 124 14 9 279 84 588 166 310 83 572 154 583 159 11 5 82 111 159 238
l139 230 99 -123 100 -124 -139 -227z"/>
<path d="M366 3355 c-86 -30 -145 -119 -146 -218 -1 -227 293 -311 420 -119
l34 52 137 0 c158 0 183 10 181 71 -2 61 -23 69 -188 69 -114 0 -144 3 -144
13 0 30 -60 95 -111 121 -60 29 -121 33 -183 11z m125 -135 c29 -16 51 -67 44
-101 -15 -65 -103 -92 -150 -44 -28 27 -34 90 -12 117 28 35 80 48 118 28z"/>
<path d="M4347 3139 c-10 -6 -22 -22 -27 -35 -18 -46 2 -68 129 -140 l120 -69
1 -45 c0 -65 15 -110 51 -153 46 -56 101 -81 179 -81 104 0 173 47 215 147 43
103 -14 240 -119 288 -71 32 -185 20 -236 -26 -13 -12 -31 -5 -135 56 -121 69
-145 77 -178 58z m517 -240 c35 -41 34 -83 -3 -120 -20 -20 -39 -29 -61 -29
-45 0 -90 47 -90 93 0 81 102 118 154 56z"/>
<path d="M3965 2271 c-69 -17 -143 -79 -165 -137 -9 -24 -11 -24 -152 -24 -79
0 -148 -4 -154 -8 -46 -30 -35 -103 18 -121 17 -6 89 -11 159 -11 100 0 129
-3 129 -13 0 -22 70 -96 109 -116 115 -59 253 -13 307 103 64 138 -11 294
-157 325 -55 12 -51 12 -94 2z m80 -145 c37 -16 55 -42 55 -81 0 -90 -125
-123 -165 -44 -8 15 -15 35 -15 43 0 31 26 69 55 82 37 16 30 16 70 0z"/>
<path d="M2013 1550 c-37 -15 -43 -42 -43 -184 l0 -136 -39 -19 c-112 -58
-153 -196 -93 -312 73 -142 269 -162 374 -40 60 70 74 173 33 251 -20 39 -83
99 -112 106 -23 6 -23 8 -23 149 0 122 -3 146 -17 163 -22 25 -51 33 -80 22z
m68 -465 c53 -28 63 -87 23 -134 -72 -86 -202 16 -138 107 28 41 69 50 115 27z"/>
<path d="M595 1180 c-109 -64 -120 -68 -136 -54 -43 39 -139 54 -210 33 -86
-26 -159 -126 -159 -219 0 -52 35 -134 71 -167 36 -33 109 -63 155 -63 125 0
222 90 233 218 l6 67 115 66 c116 67 145 96 134 134 -8 27 -42 55 -68 55 -11
0 -75 -32 -141 -70z m-216 -176 c24 -20 31 -34 31 -61 0 -46 -45 -93 -90 -93
-22 0 -41 9 -61 29 -39 40 -39 82 0 122 37 37 79 38 120 3z"/>
<path d="M3331 604 c-44 -56 -25 -82 124 -168 l110 -63 2 -56 c8 -225 293
-309 419 -123 133 195 -87 438 -297 328 l-54 -28 -117 68 c-64 37 -128 68
-142 68 -15 0 -33 -10 -45 -26z m510 -204 c10 -6 26 -24 34 -41 29 -55 -17
-129 -80 -129 -34 0 -75 30 -83 63 -22 81 56 146 129 107z"/>
</g>
</svg>
