<?xml version="1.0" standalone="no"?>
<!DOCTYPE svg PUBLIC "-//W3C//DTD SVG 20010904//EN"
 "http://www.w3.org/TR/2001/REC-SVG-20010904/DTD/svg10.dtd">
<svg version="1.0" xmlns="http://www.w3.org/2000/svg"
 width="512.000000pt" height="512.000000pt" viewBox="0 0 512.000000 512.000000"
 preserveAspectRatio="xMidYMid meet">

<g transform="translate(0.000000,512.000000) scale(0.100000,-0.100000)"
fill="" stroke="none">
<path d="M1853 5109 c-78 -13 -178 -54 -253 -104 -90 -60 -198 -176 -243 -263
-33 -62 -40 -70 -79 -81 -136 -40 -285 -169 -351 -302 -43 -88 -67 -186 -67
-279 l0 -65 -48 -27 c-148 -84 -276 -259 -328 -449 -27 -99 -25 -274 4 -367
l23 -73 -65 -69 c-111 -118 -186 -305 -186 -463 0 -124 44 -289 105 -393 l25
-43 -30 -49 c-69 -112 -108 -282 -96 -413 12 -132 78 -290 162 -387 l37 -43 2
-122 c2 -95 7 -138 25 -192 69 -215 201 -370 393 -461 75 -35 185 -64 249 -64
33 0 41 -5 69 -47 101 -151 277 -276 458 -325 111 -30 288 -30 394 0 194 55
373 188 470 349 18 29 34 52 37 52 3 0 19 -23 37 -52 97 -161 276 -294 470
-349 106 -30 283 -30 394 0 181 49 357 174 458 325 28 42 36 47 69 47 69 0
177 30 260 70 184 91 316 249 382 455 18 55 23 97 25 191 l1 122 38 43 c52 61
104 156 134 247 21 64 26 96 26 192 0 138 -17 210 -78 331 l-43 86 23 39 c58
95 103 263 104 387 1 160 -74 348 -186 467 l-65 69 23 73 c29 93 31 268 4 367
-52 190 -180 365 -328 449 l-48 27 0 65 c0 93 -24 191 -67 279 -66 132 -217
262 -351 302 -39 11 -46 19 -79 81 -107 203 -340 358 -563 374 -238 17 -464
-102 -622 -326 l-18 -25 -17 25 c-174 245 -428 363 -690 319z m208 -203 c139
-32 282 -152 343 -287 54 -117 56 -140 56 -591 0 -230 -2 -418 -4 -418 -2 0
-25 10 -52 22 -34 15 -70 22 -117 22 -65 1 -70 -1 -98 -32 -61 -68 -21 -144
86 -163 71 -12 115 -39 153 -93 l27 -39 3 -985 2 -985 -64 60 c-112 105 -232
165 -396 199 -114 23 -176 16 -212 -25 -36 -41 -37 -81 0 -122 24 -27 36 -31
107 -40 173 -21 294 -78 400 -191 202 -214 218 -534 40 -783 -78 -110 -176
-183 -305 -227 -94 -33 -247 -32 -349 1 -144 47 -260 143 -343 284 -23 37 -50
73 -61 78 -10 6 -65 12 -121 13 -110 3 -153 15 -242 72 -175 110 -278 332
-246 528 7 40 9 81 6 92 -4 10 -34 48 -66 83 -105 115 -156 250 -145 386 5 69
34 163 61 200 13 18 16 17 74 -22 104 -69 240 -113 356 -113 30 0 45 7 72 34
46 46 46 86 2 130 -28 28 -42 34 -98 39 -220 20 -400 184 -455 415 -45 187 27
386 185 509 93 72 95 88 35 232 -80 192 -13 433 163 584 213 181 495 146 684
-84 64 -78 118 -222 118 -316 0 -55 39 -101 91 -109 31 -5 42 -1 70 24 34 30
34 31 33 114 -1 140 -60 294 -159 420 -134 171 -359 278 -559 265 l-78 -5 6
50 c43 321 403 465 654 261 69 -56 121 -61 166 -16 19 19 26 36 26 66 0 36 -6
47 -54 93 -57 55 -165 114 -248 135 -27 6 -48 16 -48 21 0 19 136 144 186 170
102 55 208 70 315 44z m1204 -1 c32 -9 81 -28 109 -43 50 -26 186 -151 186
-170 0 -5 -21 -15 -47 -21 -84 -21 -192 -80 -249 -135 -48 -46 -54 -57 -54
-93 0 -30 7 -47 26 -66 45 -45 97 -40 166 16 61 49 115 74 192 88 206 38 411
-101 455 -309 20 -94 22 -91 -66 -85 -354 23 -690 -291 -719 -671 -7 -81 -6
-83 22 -115 42 -46 91 -52 133 -15 28 26 33 38 42 104 25 205 122 354 290 444
166 90 360 67 508 -59 179 -153 247 -393 166 -586 -60 -144 -58 -160 35 -232
158 -123 230 -322 185 -509 -34 -143 -121 -267 -239 -343 -65 -41 -122 -61
-217 -74 -63 -8 -78 -14 -101 -41 -35 -39 -36 -79 -2 -119 32 -39 74 -46 169
-32 91 13 188 51 267 104 70 47 72 46 109 -52 64 -170 18 -362 -123 -516 -69
-75 -68 -70 -53 -215 17 -172 -68 -351 -221 -464 -92 -69 -151 -89 -270 -92
-56 -1 -111 -7 -121 -13 -11 -5 -38 -41 -61 -78 -83 -141 -199 -237 -343 -284
-102 -33 -255 -34 -349 -1 -212 73 -363 244 -414 469 -73 323 136 650 459 718
39 8 89 15 112 15 62 0 108 42 108 100 0 35 -6 47 -33 71 -39 35 -90 38 -209
13 -159 -32 -279 -93 -389 -197 l-64 -60 2 985 3 984 25 37 c37 54 88 87 150
94 74 9 115 45 115 103 0 35 -6 47 -34 72 -33 29 -37 30 -98 25 -35 -4 -84
-15 -110 -27 -25 -11 -47 -20 -49 -20 -2 0 -4 188 -4 418 0 345 3 428 15 477
42 160 127 274 264 352 107 61 214 77 326 48z"/>
<path d="M2024 4280 c-32 -13 -64 -59 -64 -91 0 -40 46 -88 91 -95 31 -5 42
-1 70 24 28 25 34 37 34 72 0 35 -6 47 -33 71 -33 29 -60 35 -98 19z"/>
<path d="M1125 3451 c-11 -5 -28 -18 -39 -29 -46 -52 -24 -222 50 -372 85
-172 260 -317 437 -363 33 -9 61 -18 64 -21 10 -9 -9 -47 -47 -95 -46 -59
-117 -96 -210 -110 -81 -13 -115 -42 -115 -100 0 -49 33 -88 81 -97 46 -8 167
18 239 52 111 53 216 180 255 310 12 40 13 41 84 57 89 21 216 83 278 137 70
60 75 123 14 172 -38 31 -80 23 -161 -33 -90 -61 -166 -89 -260 -96 -278 -20
-535 215 -535 488 0 33 -7 48 -34 75 -34 34 -61 41 -101 25z"/>
<path d="M1860 2023 c-252 -27 -503 -179 -646 -392 -35 -52 -44 -74 -44 -109
0 -56 35 -92 89 -92 47 0 72 18 120 88 65 97 169 186 273 236 105 50 155 63
265 73 64 5 81 11 107 34 25 22 31 35 31 69 0 35 -6 47 -33 71 -33 30 -58 33
-162 22z"/>
<path d="M1125 1221 c-91 -38 -74 -171 24 -186 132 -21 164 -30 223 -63 144
-81 230 -194 273 -357 8 -32 15 -78 15 -102 0 -55 39 -101 91 -109 31 -5 42
-1 70 24 34 30 34 31 33 114 -2 189 -105 395 -263 527 -135 112 -373 189 -466
152z"/>
<path d="M3024 4280 c-32 -13 -64 -59 -64 -91 0 -40 46 -88 91 -95 31 -5 42
-1 70 24 28 25 34 37 34 72 0 35 -6 47 -33 71 -33 29 -60 35 -98 19z"/>
<path d="M3924 3450 c-37 -15 -64 -59 -64 -104 0 -109 -63 -251 -151 -338 -67
-68 -172 -122 -268 -140 -123 -23 -274 17 -398 105 -57 41 -104 48 -139 19
-61 -49 -56 -112 14 -172 62 -54 189 -116 280 -137 72 -17 72 -18 83 -57 47
-174 197 -313 379 -352 98 -21 125 -18 162 15 27 24 33 36 33 70 0 61 -35 92
-117 103 -89 12 -161 50 -208 109 -38 48 -57 86 -47 95 3 3 31 12 64 21 177
46 352 191 437 363 51 105 82 233 73 309 -8 75 -70 117 -133 91z"/>
<path d="M3124 2021 c-32 -14 -64 -60 -64 -92 0 -17 11 -41 28 -59 25 -28 36
-32 132 -45 58 -7 128 -21 155 -30 141 -48 284 -156 366 -277 48 -70 73 -88
120 -88 54 0 89 36 89 92 0 35 -9 57 -45 110 -119 178 -317 317 -523 368 -92
22 -229 33 -258 21z"/>
<path d="M3820 1214 c-86 -18 -216 -83 -291 -145 -152 -127 -250 -317 -265
-513 -7 -81 -6 -83 22 -115 42 -46 91 -52 133 -15 28 26 33 38 42 104 19 157
77 273 184 372 74 70 214 127 307 128 57 0 103 45 103 100 0 35 -6 47 -33 71
-27 25 -40 29 -85 28 -28 0 -81 -7 -117 -15z"/>
</g>
</svg>
