<?xml version="1.0" standalone="no"?>
<!DOCTYPE svg PUBLIC "-//W3C//DTD SVG 20010904//EN"
 "http://www.w3.org/TR/2001/REC-SVG-20010904/DTD/svg10.dtd">
<svg version="1.0" xmlns="http://www.w3.org/2000/svg"
 width="512.000000pt" height="512.000000pt" viewBox="0 0 512.000000 512.000000"
 preserveAspectRatio="xMidYMid meet">

<g transform="translate(0.000000,512.000000) scale(0.100000,-0.100000)"
fill="" stroke="none">
<path d="M665 5015 c-25 -24 -25 -27 -25 -200 l0 -175 -95 0 c-88 0 -98 -2
-120 -25 -21 -20 -25 -34 -25 -80 l0 -55 -135 0 c-131 0 -137 -1 -160 -25
l-25 -24 0 -271 0 -271 25 -24 c23 -24 29 -25 160 -25 l135 0 0 -55 c0 -46 4
-60 25 -80 22 -23 32 -25 120 -25 l95 0 0 -80 0 -80 -95 0 c-88 0 -98 -2 -120
-25 -21 -20 -25 -34 -25 -80 l0 -55 -135 0 c-131 0 -137 -1 -160 -25 l-25 -24
0 -271 0 -271 25 -24 c23 -24 29 -25 160 -25 l135 0 0 -55 c0 -46 4 -60 25
-80 22 -23 32 -25 120 -25 l95 0 0 -520 0 -520 -255 0 -256 0 -24 -25 -25 -24
0 -511 0 -511 25 -24 24 -25 256 0 255 0 0 -135 c0 -131 1 -137 25 -160 l24
-25 1871 0 1871 0 24 25 c33 32 33 78 0 110 l-24 25 -1816 0 -1815 0 0 80 0
80 655 0 656 0 24 25 25 24 0 511 0 511 -25 24 -24 25 -431 0 -431 0 -24 -25
c-33 -32 -33 -78 0 -110 l24 -25 376 0 375 0 0 -80 0 -80 -880 0 -880 0 0 80
0 80 375 0 376 0 24 25 c33 32 33 78 0 110 -22 23 -32 25 -120 25 l-95 0 0
520 0 520 95 0 c88 0 98 2 120 25 l25 24 0 431 0 431 -25 24 c-22 23 -32 25
-120 25 l-95 0 0 80 0 80 95 0 c88 0 98 2 120 25 l25 24 0 431 0 431 -25 24
c-22 23 -32 25 -120 25 l-95 0 0 120 0 120 95 0 c88 0 98 2 120 25 16 15 25
36 25 55 0 19 -9 40 -25 55 -23 24 -28 25 -175 25 -147 0 -152 -1 -175 -25z
m215 -855 l0 -320 -160 0 -160 0 0 320 0 320 160 0 160 0 0 -320z m-480 0 l0
-160 -80 0 -80 0 0 160 0 160 80 0 80 0 0 -160z m480 -1120 l0 -320 -160 0
-160 0 0 320 0 320 160 0 160 0 0 -320z m-480 0 l0 -160 -80 0 -80 0 0 160 0
160 80 0 80 0 0 -160z m1600 -2080 l0 -80 -880 0 -880 0 0 80 0 80 880 0 880
0 0 -80z m0 -320 l0 -80 -880 0 -880 0 0 80 0 80 880 0 880 0 0 -80z"/>
<path d="M1225 5015 c-16 -15 -25 -36 -25 -55 0 -19 9 -40 25 -55 l24 -25
1816 0 1815 0 0 -2320 0 -2320 -95 0 c-88 0 -98 -2 -120 -25 -33 -32 -33 -78
0 -110 23 -24 28 -25 175 -25 147 0 152 1 175 25 l25 24 0 2431 0 2431 -25 24
-24 25 -1871 0 -1871 0 -24 -25z"/>
<path d="M1945 4695 c-23 -22 -25 -32 -25 -120 l0 -95 -135 0 c-131 0 -137 -1
-160 -25 -24 -23 -25 -29 -25 -160 l0 -135 -95 0 c-88 0 -98 -2 -120 -25 -33
-32 -33 -78 0 -110 22 -23 32 -25 120 -25 l95 0 0 -80 0 -80 -95 0 c-88 0 -98
-2 -120 -25 -33 -32 -33 -78 0 -110 22 -23 32 -25 120 -25 l95 0 0 -80 0 -80
-95 0 c-88 0 -98 -2 -120 -25 -33 -32 -33 -78 0 -110 22 -23 32 -25 120 -25
l95 0 0 -80 0 -80 -95 0 c-88 0 -98 -2 -120 -25 -33 -32 -33 -78 0 -110 22
-23 32 -25 120 -25 l95 0 0 -135 c0 -131 1 -137 25 -160 23 -24 29 -25 160
-25 l135 0 0 -95 c0 -88 2 -98 25 -120 32 -33 78 -33 110 0 23 22 25 32 25
120 l0 95 80 0 80 0 0 -95 c0 -88 2 -98 25 -120 32 -33 78 -33 110 0 23 22 25
32 25 120 l0 95 80 0 80 0 0 -95 c0 -88 2 -98 25 -120 15 -16 36 -25 55 -25
19 0 40 9 55 25 23 22 25 32 25 120 l0 95 80 0 80 0 0 -95 c0 -88 2 -98 25
-120 32 -33 78 -33 110 0 23 22 25 32 25 120 l0 95 135 0 c131 0 137 1 160 25
24 23 25 29 25 160 l0 135 95 0 c88 0 98 2 120 25 16 15 25 36 25 55 0 19 -9
40 -25 55 -22 23 -32 25 -120 25 l-95 0 0 80 0 80 95 0 c88 0 98 2 120 25 33
32 33 78 0 110 -22 23 -32 25 -120 25 l-95 0 0 80 0 80 95 0 c88 0 98 2 120
25 16 15 25 36 25 55 0 19 -9 40 -25 55 -22 23 -32 25 -120 25 l-95 0 0 80 0
80 95 0 c88 0 98 2 120 25 33 32 33 78 0 110 -22 23 -32 25 -120 25 l-95 0 0
135 c0 131 -1 137 -25 160 -23 24 -29 25 -160 25 l-135 0 0 95 c0 88 -2 98
-25 120 -15 16 -36 25 -55 25 -19 0 -40 -9 -55 -25 -23 -22 -25 -32 -25 -120
l0 -95 -80 0 -80 0 0 95 c0 88 -2 98 -25 120 -15 16 -36 25 -55 25 -19 0 -40
-9 -55 -25 -23 -22 -25 -32 -25 -120 l0 -95 -80 0 -80 0 0 95 c0 88 -2 98 -25
120 -15 16 -36 25 -55 25 -19 0 -40 -9 -55 -25 -23 -22 -25 -32 -25 -120 l0
-95 -80 0 -80 0 0 95 c0 88 -2 98 -25 120 -15 16 -36 25 -55 25 -19 0 -40 -9
-55 -25z m1255 -1095 l0 -720 -720 0 -720 0 0 720 0 720 720 0 720 0 0 -720z"/>
<path d="M2105 3975 l-25 -24 0 -351 0 -351 25 -24 24 -25 351 0 351 0 24 25
25 24 0 351 0 351 -25 24 c-23 24 -31 25 -135 25 -104 0 -112 -1 -135 -25 -16
-15 -25 -36 -25 -55 0 -51 38 -80 105 -80 l55 0 0 -240 0 -240 -240 0 -240 0
0 240 0 240 55 0 c67 0 105 29 105 80 0 19 -9 40 -25 55 -23 24 -31 25 -135
25 -104 0 -112 -1 -135 -25z"/>
<path d="M3625 4695 c-25 -24 -25 -26 -25 -215 0 -257 -17 -240 240 -240 189
0 191 0 215 25 25 24 25 26 25 215 0 257 17 240 -240 240 -189 0 -191 0 -215
-25z m295 -215 l0 -80 -80 0 -80 0 0 80 0 80 80 0 80 0 0 -80z"/>
<path d="M4265 4695 c-25 -24 -25 -26 -25 -215 0 -257 -17 -240 240 -240 189
0 191 0 215 25 25 24 25 26 25 215 0 257 17 240 -240 240 -189 0 -191 0 -215
-25z m295 -215 l0 -80 -80 0 -80 0 0 80 0 80 80 0 80 0 0 -80z"/>
<path d="M4400 4067 c-49 -16 -133 -102 -148 -153 -28 -94 -8 -169 63 -239 51
-52 102 -75 165 -75 124 0 240 116 240 240 0 63 -23 114 -75 165 -70 71 -152
91 -245 62z m135 -172 c16 -15 25 -36 25 -55 0 -19 -9 -40 -25 -55 -15 -16
-36 -25 -55 -25 -19 0 -40 9 -55 25 -16 15 -25 36 -25 55 0 19 9 40 25 55 15
16 36 25 55 25 19 0 40 -9 55 -25z"/>
<path d="M4425 3415 c-16 -15 -25 -36 -25 -55 0 -19 9 -40 25 -55 15 -16 36
-25 55 -25 41 0 80 -39 80 -80 0 -41 -39 -80 -80 -80 -41 0 -80 39 -80 80 0
41 -39 80 -80 80 -42 0 -80 -39 -80 -81 0 -62 23 -113 75 -164 102 -103 243
-101 338 5 93 103 90 228 -8 325 -75 76 -173 98 -220 50z"/>
<path d="M3625 2775 c-24 -23 -25 -28 -25 -175 0 -147 1 -152 25 -175 15 -16
36 -25 55 -25 19 0 40 9 55 25 23 22 25 32 25 120 l0 95 80 0 80 0 0 -1040 0
-1040 -80 0 -80 0 0 815 0 816 -25 24 c-32 33 -78 33 -110 0 l-25 -24 0 -871
0 -871 25 -24 c24 -25 26 -25 215 -25 189 0 191 0 215 25 l25 24 0 1151 0
1151 -25 24 c-24 25 -26 25 -215 25 -189 0 -191 0 -215 -25z"/>
<path d="M4265 2775 l-25 -24 0 -1151 0 -1151 25 -24 c24 -25 26 -25 215 -25
189 0 191 0 215 25 l25 24 0 1151 0 1151 -25 24 c-24 25 -26 25 -215 25 -189
0 -191 0 -215 -25z m295 -1175 l0 -1040 -80 0 -80 0 0 1040 0 1040 80 0 80 0
0 -1040z"/>
<path d="M985 2215 c-16 -15 -25 -36 -25 -55 0 -19 9 -40 25 -55 23 -24 31
-25 135 -25 104 0 112 1 135 25 16 15 25 36 25 55 0 19 -9 40 -25 55 -23 24
-31 25 -135 25 -104 0 -112 -1 -135 -25z"/>
<path d="M1465 2215 c-16 -15 -25 -36 -25 -55 0 -19 9 -40 25 -55 23 -24 31
-25 135 -25 104 0 112 1 135 25 16 15 25 36 25 55 0 19 -9 40 -25 55 -23 24
-31 25 -135 25 -104 0 -112 -1 -135 -25z"/>
<path d="M985 1895 c-16 -15 -25 -36 -25 -55 0 -19 9 -40 25 -55 23 -24 31
-25 135 -25 104 0 112 1 135 25 16 15 25 36 25 55 0 19 -9 40 -25 55 -23 24
-31 25 -135 25 -104 0 -112 -1 -135 -25z"/>
<path d="M1465 1895 c-16 -15 -25 -36 -25 -55 0 -19 9 -40 25 -55 23 -24 31
-25 135 -25 104 0 112 1 135 25 16 15 25 36 25 55 0 19 -9 40 -25 55 -23 24
-31 25 -135 25 -104 0 -112 -1 -135 -25z"/>
<path d="M2345 1495 c-25 -24 -25 -26 -25 -215 0 -257 -17 -240 240 -240 257
0 240 -17 240 240 0 257 17 240 -240 240 -189 0 -191 0 -215 -25z m295 -215
l0 -80 -80 0 -80 0 0 80 0 80 80 0 80 0 0 -80z"/>
<path d="M2985 1495 c-25 -24 -25 -26 -25 -215 0 -257 -17 -240 240 -240 257
0 240 -17 240 240 0 257 17 240 -240 240 -189 0 -191 0 -215 -25z m295 -215
l0 -80 -80 0 -80 0 0 80 0 80 80 0 80 0 0 -80z"/>
<path d="M2345 855 c-25 -24 -25 -26 -25 -215 0 -257 -17 -240 240 -240 257 0
240 -17 240 240 0 257 17 240 -240 240 -189 0 -191 0 -215 -25z m295 -215 l0
-80 -80 0 -80 0 0 80 0 80 80 0 80 0 0 -80z"/>
<path d="M2985 855 c-25 -24 -25 -26 -25 -215 0 -257 -17 -240 240 -240 257 0
240 -17 240 240 0 257 17 240 -240 240 -189 0 -191 0 -215 -25z m295 -215 l0
-80 -80 0 -80 0 0 80 0 80 80 0 80 0 0 -80z"/>
</g>
</svg>
