<?xml version="1.0" standalone="no"?>
<!DOCTYPE svg PUBLIC "-//W3C//DTD SVG 20010904//EN"
 "http://www.w3.org/TR/2001/REC-SVG-20010904/DTD/svg10.dtd">
<svg version="1.0" xmlns="http://www.w3.org/2000/svg"
 width="512.000000pt" height="512.000000pt" viewBox="0 0 512.000000 512.000000"
 preserveAspectRatio="xMidYMid meet">

<g transform="translate(0.000000,512.000000) scale(0.100000,-0.100000)"
fill="" stroke="none">
<path d="M2475 4936 c-121 -31 -222 -114 -273 -224 -56 -121 -36 -335 43 -467
l33 -54 -36 -6 c-53 -9 -153 -45 -183 -66 -25 -17 -29 -18 -96 -2 l-71 17 33
65 c41 82 69 214 62 290 -9 96 -43 169 -111 237 -80 79 -148 107 -261 107
-113 0 -181 -28 -261 -107 -82 -82 -108 -148 -108 -271 -1 -103 13 -162 60
-256 l32 -67 -55 -11 c-121 -24 -238 -116 -291 -229 l-27 -57 -3 -361 -3 -362
27 -21 c26 -20 36 -21 384 -21 l358 0 -15 -47 c-8 -27 -17 -86 -20 -133 -14
-215 87 -440 292 -646 133 -135 352 -290 528 -375 l48 -24 86 44 c103 53 275
167 376 249 312 256 461 586 388 865 l-17 67 356 0 c348 0 358 1 384 21 l27
21 -3 362 -3 361 -28 61 c-51 111 -167 201 -290 225 l-54 11 34 68 c68 137 80
304 29 415 -31 68 -100 143 -163 178 -222 120 -501 -19 -542 -270 -16 -103 10
-244 63 -339 14 -26 25 -48 24 -49 -2 -1 -31 -9 -66 -18 l-62 -17 -54 30 c-29
17 -84 37 -121 45 -37 7 -69 16 -72 18 -2 3 7 22 21 44 36 55 74 176 82 263
20 232 -140 426 -368 444 -37 3 -84 0 -113 -8z m161 -141 c64 -19 113 -60 149
-126 46 -85 38 -214 -22 -334 -47 -95 -116 -145 -203 -145 -142 0 -252 155
-253 356 0 59 4 79 28 123 35 64 85 107 145 126 59 18 96 18 156 0z m-919
-124 c109 -55 151 -166 119 -306 -47 -200 -202 -291 -334 -195 -98 71 -153
293 -98 398 59 113 202 160 313 103z m1860 14 c53 -16 111 -64 140 -118 13
-24 18 -54 17 -117 -2 -255 -196 -403 -350 -268 -97 85 -141 276 -88 380 31
63 86 108 154 129 39 12 72 10 127 -6z m-622 -665 c28 -13 69 -44 92 -67 66
-69 73 -102 73 -358 l0 -222 -62 20 c-35 11 -69 22 -75 23 -10 3 -13 44 -13
166 0 152 -1 163 -22 185 -27 29 -65 29 -95 1 -22 -21 -23 -27 -23 -190 0
-152 -2 -169 -17 -174 -63 -21 -133 -64 -189 -117 l-64 -60 -65 62 c-55 53
-116 90 -187 114 -16 6 -18 23 -18 174 0 157 -1 168 -22 190 -27 29 -65 29
-95 1 -22 -21 -23 -27 -23 -185 0 -123 -3 -164 -12 -167 -7 -1 -41 -12 -75
-23 l-63 -20 0 222 c0 240 6 274 55 339 33 43 89 81 151 100 40 13 106 15 374
13 324 -2 325 -2 375 -27z m-1048 -47 c-3 -10 -14 -38 -24 -63 -15 -39 -18
-84 -21 -339 l-3 -294 -26 -34 -26 -33 -196 2 -196 3 -3 204 c-2 140 -6 209
-14 219 -33 40 -96 32 -117 -15 -7 -15 -11 -97 -11 -218 l0 -195 -85 0 -85 0
0 294 0 294 28 53 c29 57 95 110 156 128 17 5 165 10 330 10 280 1 298 0 293
-16z m1925 7 c65 -18 130 -70 160 -129 l28 -53 0 -294 0 -294 -84 0 -85 0 -3
206 -3 206 -28 24 c-15 13 -34 24 -42 24 -8 0 -27 -11 -42 -24 l-28 -24 -3
-206 -3 -206 -192 0 -192 0 -27 34 -27 33 -3 299 c-3 285 -4 301 -25 348 -13
27 -23 52 -23 57 0 13 577 11 622 -1z m-1519 -730 c23 -12 82 -63 132 -116 66
-67 98 -94 115 -94 17 0 49 27 115 94 111 116 154 140 250 141 198 0 365 -192
365 -420 -1 -273 -230 -562 -637 -801 l-91 -54 -60 34 c-493 278 -738 630
-656 941 59 227 288 362 467 275z"/>
<path d="M2395 3000 c-13 -15 -20 -42 -23 -100 l-5 -80 -74 0 c-65 0 -77 -3
-98 -25 -24 -23 -25 -29 -25 -160 0 -131 1 -137 25 -160 21 -22 33 -25 98 -25
l74 0 5 -80 c7 -120 7 -120 188 -120 181 0 180 -1 180 118 l0 82 80 0 c73 0
83 3 105 25 24 23 25 29 25 160 0 131 -1 137 -25 160 -22 22 -32 25 -105 25
l-80 0 0 83 c0 118 1 117 -182 117 -132 0 -146 -2 -163 -20z m207 -201 c4
-107 17 -119 129 -119 l79 0 0 -45 0 -45 -79 0 c-112 0 -125 -12 -129 -119
l-4 -81 -38 0 -37 0 -5 82 c-6 107 -18 118 -129 118 l-79 0 0 45 0 45 79 0
c111 0 123 11 129 118 l5 82 37 0 38 0 4 -81z"/>
<path d="M162 4224 c-18 -9 -43 -31 -55 -48 l-22 -31 -3 -806 -2 -807 49 -138
c174 -494 451 -1081 736 -1559 l72 -122 -28 -209 c-35 -261 -36 -287 -7 -314
41 -38 92 -20 107 38 6 20 25 143 41 273 l31 237 -85 146 c-302 516 -520 970
-712 1483 l-64 173 0 780 0 780 24 0 c81 0 173 -65 216 -153 l31 -62 30 -535
c16 -294 32 -548 34 -565 3 -19 101 -160 255 -372 l251 -342 55 -253 c32 -144
63 -261 71 -270 38 -43 117 -8 115 49 0 16 -50 256 -111 535 -61 279 -111 528
-111 554 0 65 25 111 73 136 69 35 138 15 192 -56 32 -42 547 -1305 577 -1413
34 -126 35 -356 4 -776 -27 -362 -26 -375 14 -397 28 -15 46 -12 75 12 25 23
25 24 50 368 39 532 34 702 -27 890 -35 108 -536 1340 -560 1373 -88 130 -211
181 -343 143 -45 -14 -69 -29 -110 -69 -89 -89 -104 -183 -61 -374 13 -57 22
-103 20 -103 -1 0 -67 89 -147 198 l-144 197 -27 495 c-15 272 -31 527 -37
565 -27 196 -181 348 -366 361 -52 4 -76 1 -101 -12z"/>
<path d="M4797 4230 c-92 -23 -186 -91 -237 -170 -64 -100 -68 -128 -100 -685
-17 -280 -31 -522 -32 -537 -3 -26 -276 -413 -285 -404 -3 2 6 50 18 106 39
184 18 285 -77 369 -136 120 -327 83 -442 -86 -34 -49 -550 -1323 -577 -1426
-42 -155 -49 -296 -30 -578 28 -415 43 -593 50 -611 3 -9 20 -22 36 -28 37
-16 75 -1 88 32 5 13 3 98 -5 198 -42 572 -46 657 -35 768 6 60 20 143 31 183
17 67 506 1282 550 1369 25 50 82 98 124 105 88 17 166 -52 166 -145 0 -23
-52 -280 -116 -572 l-116 -531 20 -26 c10 -14 27 -28 36 -29 29 -6 65 7 75 27
6 10 35 129 65 265 l55 247 251 342 c154 212 252 353 255 372 2 17 18 271 34
565 l30 535 31 62 c43 88 135 153 216 153 l24 0 0 -778 0 -778 -41 -114 c-181
-500 -416 -997 -716 -1514 l-104 -178 31 -237 c17 -130 35 -253 41 -273 15
-58 66 -76 107 -38 29 27 28 53 -7 314 l-28 209 72 121 c288 485 578 1102 749
1594 l36 104 0 795 c0 878 3 838 -63 885 -35 25 -118 33 -180 18z"/>
</g>
</svg>
