<?xml version="1.0" standalone="no"?>
<!DOCTYPE svg PUBLIC "-//W3C//DTD SVG 20010904//EN"
 "http://www.w3.org/TR/2001/REC-SVG-20010904/DTD/svg10.dtd">
<svg version="1.0" xmlns="http://www.w3.org/2000/svg"
 width="512.000000pt" height="512.000000pt" viewBox="0 0 512.000000 512.000000"
 preserveAspectRatio="xMidYMid meet">

<g transform="translate(0.000000,512.000000) scale(0.100000,-0.100000)"
fill="" stroke="none">
<path d="M3601 5104 c-180 -48 -315 -174 -370 -345 l-12 -36 -76 18 c-102 24
-272 49 -338 49 -46 0 -56 -4 -74 -26 -27 -34 -26 -57 2 -89 19 -23 34 -28
107 -36 92 -10 224 -32 309 -52 l55 -12 12 -68 c34 -179 165 -330 343 -393 50
-18 87 -24 156 -24 100 0 165 14 241 53 l51 26 64 -53 c82 -68 239 -231 311
-321 253 -318 423 -731 469 -1139 15 -130 31 -159 87 -154 24 2 41 11 55 30
20 26 20 32 8 135 -69 602 -359 1153 -818 1552 l-62 53 24 32 c33 43 70 129
84 194 36 170 -19 346 -147 471 -38 37 -92 78 -124 93 -114 56 -249 71 -357
42z m273 -167 c72 -33 150 -112 184 -185 22 -48 27 -71 27 -147 0 -78 -4 -98
-29 -153 -38 -81 -123 -162 -203 -192 -82 -31 -205 -26 -285 12 -73 34 -142
103 -176 176 -24 50 -27 69 -27 157 0 120 18 167 92 246 80 85 168 121 285
115 55 -3 93 -11 132 -29z"/>
<path d="M3556 4749 c-19 -15 -26 -30 -26 -55 0 -69 76 -99 125 -49 29 28 31
45 10 84 -23 46 -66 54 -109 20z"/>
<path d="M2250 4773 c-475 -73 -941 -303 -1286 -635 -385 -371 -622 -814 -714
-1339 -28 -156 -38 -475 -21 -640 10 -97 47 -304 67 -375 5 -18 -3 -25 -50
-48 -71 -35 -148 -119 -175 -191 -28 -75 -28 -175 0 -252 29 -80 122 -171 204
-202 76 -29 194 -26 267 6 l46 21 45 -68 c219 -328 554 -619 922 -800 173 -85
300 -132 470 -175 220 -55 342 -70 590 -69 237 0 356 13 560 61 253 60 556
191 771 336 l111 75 23 -55 c47 -113 143 -212 260 -269 152 -73 356 -58 499
37 265 177 312 550 97 777 -66 70 -120 107 -203 138 -38 14 -70 27 -72 29 -2
2 13 30 32 62 144 239 253 553 298 858 25 174 25 200 -6 230 -29 30 -64 32
-95 7 -20 -16 -25 -37 -41 -163 -33 -264 -105 -502 -224 -739 -248 -493 -675
-883 -1189 -1085 -913 -358 -1967 -75 -2576 690 -69 88 -160 219 -160 233 0 4
10 28 22 53 18 35 22 62 23 134 0 77 -4 98 -26 146 -15 31 -43 74 -63 96 -35
40 -127 95 -177 106 -24 6 -28 16 -53 124 -76 331 -76 705 1 1028 115 487 399
936 788 1245 313 248 693 412 1082 465 65 9 133 19 151 21 66 10 96 80 52 124
-24 24 -105 25 -250 3z m-1759 -3176 c146 -77 143 -291 -6 -358 -88 -40 -185
-15 -249 64 -58 72 -46 198 26 264 60 56 156 68 229 30z m4216 -642 c71 -32
143 -102 178 -172 40 -81 47 -202 15 -286 -40 -107 -122 -186 -233 -224 -62
-21 -173 -18 -240 7 -79 30 -166 111 -200 187 -49 112 -52 104 74 228 61 61
145 152 186 203 l76 94 46 -7 c25 -3 69 -17 98 -30z"/>
<path d="M4480 540 c-65 -65 31 -172 98 -110 22 20 26 35 23 75 -5 50 -83 73
-121 35z"/>
<path d="M2545 4409 c-122 -15 -257 -86 -335 -177 -41 -47 -93 -146 -125 -235
-21 -60 -73 -98 -144 -105 -39 -3 -60 2 -114 28 -91 44 -158 60 -252 60 -151
0 -276 -51 -381 -156 -112 -111 -175 -282 -159 -429 8 -68 37 -164 65 -212 64
-110 13 -227 -115 -266 -259 -80 -420 -341 -375 -606 17 -101 77 -218 149
-290 55 -55 157 -116 236 -141 59 -19 91 -45 114 -93 28 -58 26 -90 -9 -165
-48 -102 -64 -168 -64 -267 1 -128 39 -244 89 -267 33 -15 80 6 95 42 10 24 9
38 -8 82 -44 118 -37 205 25 342 33 71 38 91 38 156 0 60 -5 86 -26 130 -48
104 -108 150 -264 206 -73 25 -175 130 -204 208 -84 227 35 463 266 525 137
37 245 194 230 337 -3 29 -22 89 -42 133 -20 44 -41 107 -46 139 -28 159 63
330 217 407 54 28 67 30 164 30 102 0 108 -1 190 -40 79 -37 91 -40 170 -40
66 0 96 5 132 22 66 30 141 107 163 168 39 108 74 172 118 217 139 138 369
149 522 24 56 -46 91 -100 125 -191 45 -122 80 -163 180 -216 37 -19 60 -24
130 -24 80 0 92 3 170 40 82 39 88 40 190 40 94 0 111 -3 161 -28 86 -42 143
-98 184 -180 60 -122 57 -245 -10 -377 -51 -100 -52 -199 -3 -299 30 -62 98
-126 156 -147 193 -69 264 -132 312 -275 45 -133 7 -293 -95 -394 -44 -44
-111 -81 -218 -120 -67 -24 -139 -99 -167 -172 -35 -92 -31 -171 13 -269 20
-44 42 -104 48 -134 35 -165 -58 -348 -216 -426 -55 -26 -69 -29 -165 -29
-101 0 -108 1 -185 39 -136 65 -252 60 -363 -16 -52 -36 -94 -98 -122 -183
-42 -127 -142 -228 -259 -262 -87 -25 -210 -15 -286 24 -106 55 -162 128 -219
285 -24 65 -86 132 -154 165 -49 24 -69 28 -142 28 -79 0 -93 -3 -169 -39
-105 -49 -194 -58 -301 -30 -69 18 -70 18 -98 -3 -37 -27 -42 -80 -10 -110 52
-49 236 -68 353 -38 33 9 87 29 121 45 72 36 128 38 184 10 48 -24 63 -47 96
-136 34 -95 67 -147 134 -213 105 -104 224 -151 379 -151 155 1 292 60 393
169 51 56 110 161 123 219 4 19 21 50 38 69 62 71 141 81 237 33 162 -82 347
-81 503 2 256 137 358 456 229 716 -39 76 -45 105 -32 153 18 65 67 111 149
137 258 83 416 356 360 624 -17 83 -74 191 -133 255 -63 67 -133 112 -231 147
-81 30 -128 73 -145 135 -13 48 -7 77 32 153 43 87 61 178 55 273 -20 288
-250 505 -537 505 -89 0 -161 -17 -250 -59 -71 -34 -122 -39 -173 -17 -42 17
-93 76 -102 118 -16 71 -77 172 -144 238 -120 117 -279 170 -446 149z"/>
<path d="M2694 4039 c-22 -11 -44 -48 -44 -73 0 -7 9 -25 21 -40 41 -52 129
-23 129 43 0 55 -59 93 -106 70z"/>
<path d="M2485 3830 c-32 -12 -48 -38 -47 -71 1 -44 28 -69 72 -69 46 0 70 25
70 72 0 52 -49 87 -95 68z"/>
<path d="M1593 3458 c-34 -17 -40 -52 -26 -147 11 -70 18 -90 39 -108 27 -25
54 -29 85 -12 35 18 41 53 24 148 -12 69 -20 90 -40 109 -28 24 -48 26 -82 10z"/>
<path d="M3072 3359 c-116 -22 -234 -111 -291 -218 -127 -238 4 -538 264 -605
233 -61 458 72 521 309 61 226 -98 470 -336 515 -61 11 -97 11 -158 -1z m204
-170 c88 -42 154 -149 154 -250 0 -61 -35 -140 -82 -186 -67 -64 -101 -78
-193 -78 -92 0 -126 14 -193 78 -120 116 -104 308 34 413 73 56 189 65 280 23z"/>
<path d="M2280 3225 c-21 -22 -22 -30 -16 -94 8 -94 26 -142 57 -160 33 -18
74 -8 95 24 14 21 14 34 5 97 -18 109 -20 117 -41 138 -28 28 -71 25 -100 -5z"/>
<path d="M1891 2789 c-117 -20 -236 -113 -289 -227 -24 -50 -27 -69 -27 -162
0 -93 3 -112 27 -162 36 -78 108 -152 183 -189 239 -117 517 23 566 286 48
264 -191 501 -460 454z m138 -155 c61 -18 123 -70 154 -128 29 -56 29 -155 0
-211 -46 -87 -127 -137 -223 -137 -98 0 -175 49 -216 137 -66 142 6 301 155
341 61 17 69 17 130 -2z"/>
<path d="M1270 2633 c-52 -19 -69 -93 -30 -128 48 -43 120 -10 120 55 0 50
-47 88 -90 73z"/>
<path d="M2681 2533 c-11 -10 -24 -32 -27 -50 -13 -67 77 -110 124 -60 31 33
29 80 -4 106 -33 26 -65 27 -93 4z"/>
<path d="M3672 2357 c-45 -48 -11 -127 55 -127 32 0 73 42 73 75 0 35 -42 75
-78 75 -17 0 -37 -9 -50 -23z"/>
<path d="M2523 1946 c-93 -29 -181 -124 -203 -218 -36 -149 46 -305 188 -358
114 -43 256 -10 333 77 59 68 74 110 74 208 0 81 -3 95 -30 144 -71 129 -222
190 -362 147z m172 -161 c54 -31 79 -81 73 -145 -11 -115 -128 -175 -229 -118
-75 42 -101 151 -51 217 53 72 133 90 207 46z"/>
<path d="M3319 1831 c-49 -40 -18 -131 46 -131 37 0 75 37 75 74 0 64 -71 97
-121 57z"/>
<path d="M1590 1600 c-30 -30 -27 -83 6 -109 34 -27 57 -26 90 2 33 28 37 76
9 107 -24 26 -79 26 -105 0z"/>
<path d="M1940 1543 c-51 -19 -68 -85 -30 -123 30 -30 83 -27 109 6 28 36 26
60 -8 95 -29 29 -42 33 -71 22z"/>
<path d="M3400 1493 c-33 -12 -50 -37 -50 -73 0 -32 8 -45 69 -103 58 -56 75
-67 103 -67 43 0 71 28 71 71 0 25 -13 44 -69 99 -68 68 -95 83 -124 73z"/>
<path d="M2694 958 c-22 -10 -44 -47 -44 -72 0 -7 9 -25 21 -40 15 -19 30 -26
55 -26 69 0 99 76 49 125 -26 27 -47 30 -81 13z"/>
</g>
</svg>
