<?xml version="1.0" standalone="no"?>
<!DOCTYPE svg PUBLIC "-//W3C//DTD SVG 20010904//EN"
 "http://www.w3.org/TR/2001/REC-SVG-20010904/DTD/svg10.dtd">
<svg version="1.0" xmlns="http://www.w3.org/2000/svg"
 width="512.000000pt" height="512.000000pt" viewBox="0 0 512.000000 512.000000"
 preserveAspectRatio="xMidYMid meet">

<g transform="translate(0.000000,512.000000) scale(0.100000,-0.100000)"
fill="" stroke="none">
<path d="M359 4347 c-72 -30 -121 -70 -164 -132 -69 -102 -66 -31 -63 -1346
l3 -1184 27 -57 c35 -76 99 -143 173 -181 l60 -32 588 -3 c323 -1 587 -6 587
-10 0 -4 -12 -64 -27 -134 l-26 -128 -83 0 c-110 0 -181 -26 -244 -89 -50 -51
-67 -94 -77 -195 -5 -56 -3 -66 16 -85 l21 -21 820 0 820 0 21 21 c19 19 21
29 16 88 -10 103 -24 139 -76 191 -64 64 -135 90 -244 90 l-83 0 -24 113 c-12
61 -25 122 -28 134 -4 23 -3 23 97 23 l101 0 0 -61 c0 -93 17 -146 64 -194 50
-52 91 -65 211 -65 103 0 222 24 344 69 47 17 86 29 88 27 2 -2 11 -86 19
-187 16 -196 23 -222 72 -240 33 -13 64 0 87 35 15 22 15 40 0 218 -9 106 -18
209 -21 228 -5 34 -2 37 56 75 148 97 252 249 254 370 1 78 -18 105 -74 105
-47 0 -80 -33 -80 -81 -1 -142 -211 -319 -484 -408 -50 -16 -115 -34 -144 -40
-65 -13 -192 -14 -212 -1 -11 6 -16 41 -21 137 -7 142 -25 202 -79 258 -21 22
-27 34 -20 45 21 32 10 70 -31 115 l-42 45 22 56 c45 118 18 177 -95 209 -85
25 -93 35 -62 82 14 21 54 72 88 113 36 42 81 111 104 159 36 76 41 94 44 175
3 55 -2 131 -12 192 -21 131 -21 331 0 432 75 368 353 608 809 699 138 27 471
25 577 -5 220 -60 376 -157 526 -327 238 -267 327 -668 232 -1039 -29 -114
-61 -190 -191 -449 -68 -135 -128 -269 -139 -310 -60 -220 -40 -510 61 -854
53 -182 69 -216 107 -232 39 -16 81 1 100 41 12 25 8 42 -33 170 -108 335
-138 662 -78 843 9 27 73 164 142 305 187 377 223 505 225 780 1 229 -32 380
-125 575 -186 390 -564 651 -986 681 l-92 7 -36 53 c-44 64 -90 100 -164 131
l-56 23 -1555 0 -1555 0 -56 -23z m3181 -157 c22 -11 40 -24 40 -29 0 -5 -31
-12 -70 -15 -85 -9 -240 -45 -340 -81 -375 -134 -621 -416 -685 -784 -20 -110
-19 -318 1 -444 33 -207 12 -283 -121 -442 -118 -141 -148 -228 -107 -307 l20
-38 -994 0 -994 0 2 1014 3 1014 30 44 c17 23 49 53 70 65 l40 23 1533 0
c1518 0 1533 0 1572 -20z m-1143 -2341 c1 -26 10 -54 27 -77 20 -28 23 -39 14
-55 -15 -30 -1 -78 34 -114 l32 -33 -1041 2 -1041 3 -43 30 c-62 44 -83 92
-87 198 l-4 87 1054 0 1053 0 2 -41z m-165 -569 c15 -69 27 -128 28 -132 0 -5
-131 -8 -291 -8 l-291 0 5 23 c3 12 15 67 27 122 12 55 23 106 25 113 4 10 56
12 237 10 l233 -3 27 -125z m366 -314 c15 -8 36 -23 46 -35 l19 -21 -693 0
c-644 0 -691 1 -679 17 8 9 28 24 44 35 28 17 66 18 633 18 497 0 608 -2 630
-14z"/>
<path d="M1099 3781 c-14 -10 -35 -42 -48 -70 -31 -66 -56 -75 -134 -48 -32
10 -68 16 -80 13 -31 -7 -167 -149 -167 -173 0 -11 8 -44 18 -74 26 -74 16
-99 -49 -130 -78 -36 -89 -56 -89 -160 0 -118 7 -132 80 -169 77 -39 85 -58
57 -137 -27 -77 -18 -101 70 -183 71 -67 84 -70 169 -43 72 22 96 11 128 -61
13 -30 33 -59 44 -65 26 -14 207 -14 233 -1 10 6 33 38 49 70 36 71 60 81 129
56 82 -29 96 -24 178 57 81 82 86 96 57 178 -25 69 -15 93 56 129 32 16 64 39
70 49 13 26 13 207 -1 232 -6 11 -37 32 -69 46 -51 22 -60 30 -65 57 -4 17 1
50 9 75 28 78 24 90 -63 174 -47 47 -87 77 -100 77 -11 0 -44 -9 -71 -19 -73
-28 -100 -16 -129 55 -30 72 -54 84 -169 84 -73 0 -94 -4 -113 -19z m163 -188
c20 -41 32 -52 82 -77 76 -36 124 -43 174 -23 37 15 41 15 56 -1 14 -16 14
-22 -1 -70 -14 -43 -15 -57 -4 -89 30 -91 55 -127 103 -153 65 -34 65 -61 0
-94 -43 -22 -52 -32 -80 -97 -36 -81 -38 -101 -16 -154 15 -36 14 -39 -4 -57
-18 -18 -21 -19 -57 -4 -53 22 -73 20 -154 -16 -65 -28 -75 -37 -97 -80 -34
-66 -63 -66 -95 0 -19 36 -34 52 -69 69 -92 44 -116 48 -172 30 -48 -15 -54
-15 -70 -1 -16 15 -16 19 -1 56 20 50 13 98 -23 174 -25 50 -36 62 -76 81 -66
31 -66 59 0 93 39 21 52 36 80 90 28 56 31 72 26 115 -3 28 -6 64 -7 80 -2 33
-2 33 108 21 43 -5 59 -2 115 26 54 28 69 41 90 80 34 65 61 65 92 1z"/>
<path d="M1100 3429 c-75 -30 -150 -107 -179 -184 -47 -123 -13 -257 89 -348
60 -54 121 -77 206 -77 179 0 314 135 314 314 0 85 -23 146 -77 206 -64 72
-129 102 -223 107 -59 2 -87 -1 -130 -18z m194 -162 c100 -57 102 -207 4 -267
-45 -27 -120 -27 -165 1 -69 43 -94 145 -50 210 52 78 135 100 211 56z"/>
<path d="M1965 3788 c-32 -17 -125 -110 -141 -140 -22 -42 -9 -70 71 -147 56
-55 80 -71 102 -71 41 0 71 25 79 65 l6 34 155 3 c149 3 156 4 174 27 26 32
25 82 -4 109 -22 21 -33 22 -175 22 l-152 0 0 26 c0 30 -50 84 -77 84 -10 0
-27 -6 -38 -12z"/>
<path d="M2145 2815 c-16 -15 -25 -36 -25 -55 l0 -30 -129 0 c-111 0 -132 -3
-152 -19 -31 -25 -32 -83 -1 -114 21 -20 34 -22 152 -25 l130 -4 0 -24 c0 -36
42 -74 81 -74 27 0 45 13 106 73 65 65 73 78 73 111 0 32 -8 46 -57 98 -89 92
-134 108 -178 63z"/>
<path d="M526 1789 c-37 -29 -37 -89 0 -118 25 -20 39 -21 256 -21 l229 0 24
25 c33 32 33 78 0 110 l-24 25 -229 0 c-217 0 -231 -1 -256 -21z"/>
<path d="M1126 1789 c-20 -16 -26 -29 -26 -59 0 -51 35 -80 96 -80 57 0 90 16
104 51 14 33 6 62 -23 89 -30 28 -115 28 -151 -1z"/>
<path d="M3497 3780 c-14 -11 -33 -41 -43 -66 -11 -29 -27 -50 -45 -60 -26
-13 -34 -12 -81 6 -29 11 -64 20 -77 20 -28 0 -166 -130 -175 -165 -3 -12 3
-48 14 -80 27 -79 20 -100 -49 -135 -83 -42 -86 -47 -86 -166 0 -93 2 -105 23
-127 13 -14 43 -32 67 -41 61 -24 72 -54 45 -130 -11 -33 -20 -66 -20 -74 0
-8 35 -50 77 -93 84 -87 104 -94 178 -63 60 25 98 13 121 -38 10 -23 30 -55
42 -70 23 -27 27 -28 126 -28 121 0 138 8 172 86 20 46 28 54 57 59 21 4 48 1
72 -9 69 -29 90 -23 167 52 88 85 93 97 68 170 -29 81 -21 108 41 137 87 40
89 43 89 164 0 125 -6 138 -80 170 -69 30 -79 56 -51 134 27 75 17 99 -72 185
-73 70 -88 73 -167 42 -46 -18 -54 -19 -79 -6 -18 10 -36 33 -50 65 -31 73
-48 81 -162 81 -81 0 -100 -3 -122 -20z m170 -192 c25 -47 34 -54 97 -80 78
-31 111 -34 161 -14 30 13 35 13 51 -5 16 -18 16 -21 -1 -64 -19 -52 -17 -66
25 -159 26 -59 34 -69 75 -86 36 -16 45 -24 45 -44 0 -19 -9 -30 -37 -45 -52
-26 -67 -45 -99 -125 l-27 -69 17 -50 c17 -48 17 -50 -1 -68 -17 -18 -20 -18
-65 -1 -45 16 -50 16 -104 -3 -81 -27 -116 -53 -139 -102 -15 -34 -25 -43 -45
-43 -20 0 -30 10 -50 48 -20 38 -36 52 -80 74 -78 38 -111 43 -167 24 -42 -14
-49 -14 -62 -1 -13 13 -13 21 2 69 18 54 17 55 -9 123 -33 83 -47 101 -102
125 -59 27 -55 53 14 91 49 25 54 32 84 107 l32 79 -17 51 c-16 48 -16 52 0
70 15 17 20 17 50 4 48 -20 84 -18 146 8 81 33 96 46 115 94 24 64 53 61 91
-8z"/>
<path d="M3520 3435 c-76 -25 -140 -82 -180 -159 -31 -61 -35 -78 -35 -145 0
-63 5 -87 28 -133 33 -67 90 -121 164 -155 48 -22 65 -25 137 -21 66 3 91 10
134 33 227 123 219 452 -13 565 -60 29 -170 36 -235 15z m188 -172 c43 -31 75
-104 67 -153 -13 -74 -79 -130 -155 -130 -99 0 -174 89 -156 185 8 42 50 93
91 111 40 19 119 12 153 -13z"/>
</g>
</svg>
