<?xml version="1.0" standalone="no"?>
<!DOCTYPE svg PUBLIC "-//W3C//DTD SVG 20010904//EN"
 "http://www.w3.org/TR/2001/REC-SVG-20010904/DTD/svg10.dtd">
<svg version="1.0" xmlns="http://www.w3.org/2000/svg"
 width="512.000000pt" height="512.000000pt" viewBox="0 0 512.000000 512.000000"
 preserveAspectRatio="xMidYMid meet">

<g transform="translate(0.000000,512.000000) scale(0.100000,-0.100000)"
fill="" stroke="none">
<path d="M945 5109 c-41 -11 -91 -62 -106 -106 -21 -63 -7 -117 54 -207 31
-44 74 -117 96 -162 77 -155 75 -126 79 -811 l3 -612 -65 -85 c-142 -186 -230
-430 -267 -739 -16 -133 -6 -682 15 -830 35 -251 88 -356 186 -369 20 -2 35
-21 75 -93 l50 -90 5 -360 5 -360 29 -62 c30 -66 106 -147 167 -178 146 -76
320 -51 441 63 l37 35 46 -42 c158 -145 413 -127 546 39 l33 41 116 -6 c345
-18 509 -40 769 -105 163 -40 362 -70 459 -70 155 1 307 64 416 174 115 115
183 258 228 476 29 143 36 450 13 612 -65 470 -259 1010 -520 1447 l-63 106 0
80 c-1 159 -69 329 -188 469 l-65 76 49 0 c154 0 277 109 298 264 13 93 -38
208 -117 266 -51 36 -195 84 -325 107 -88 16 -95 18 -89 37 16 57 17 194 1
260 -38 159 -156 301 -324 389 l-92 48 0 58 c0 146 -130 263 -275 248 -122
-13 -209 -97 -230 -224 -6 -38 -10 -44 -43 -53 -20 -5 -39 -6 -42 -2 -4 4 -19
38 -35 76 -47 113 -116 166 -219 166 -95 0 -167 -44 -205 -125 -30 -63 -27
-121 14 -262 19 -67 35 -127 35 -133 0 -6 -13 -30 -29 -53 -15 -23 -39 -62
-52 -87 l-23 -45 -8 80 c-20 199 -118 453 -209 544 -104 103 -172 121 -444
120 -110 0 -214 -5 -230 -10z m490 -186 c22 -11 52 -34 67 -50 38 -40 104
-183 130 -283 22 -83 23 -97 23 -605 l0 -520 -60 -22 c-33 -12 -85 -22 -116
-22 -63 -1 -149 -24 -195 -52 -17 -10 -34 -19 -38 -19 -3 0 -6 228 -6 508 0
281 -5 538 -10 577 -20 137 -80 285 -175 431 l-56 86 198 -4 c180 -3 202 -5
238 -25z m1288 15 c39 -20 46 -40 47 -123 0 -94 13 -124 60 -147 19 -9 71 -33
115 -54 194 -91 285 -262 243 -459 l-13 -60 -100 -7 c-160 -11 -308 -52 -402
-110 -38 -22 -39 -20 -17 25 26 51 55 76 98 88 62 15 84 29 97 60 16 41 -4 87
-47 105 -37 16 -112 6 -165 -21 -98 -51 -173 -191 -199 -374 -10 -68 -14 -77
-64 -135 -123 -141 -216 -290 -284 -458 -7 -16 -19 -28 -29 -28 -24 0 -196 58
-217 73 -15 11 -15 31 -6 222 5 116 16 257 24 315 34 238 110 454 209 590 30
41 47 74 47 92 0 16 -19 94 -42 174 -44 153 -45 195 -5 202 50 10 63 -5 108
-115 46 -115 74 -153 111 -153 13 0 52 9 88 20 36 11 74 20 85 20 37 0 96 21
116 41 15 15 19 33 19 87 0 76 14 111 50 129 31 16 46 16 73 1z m727 -1035
c111 -22 212 -59 237 -88 45 -51 39 -127 -13 -176 -24 -23 -31 -24 -212 -25
-212 -1 -288 -16 -325 -66 -19 -26 -20 -34 -10 -138 17 -176 -6 -285 -80 -373
-20 -24 -34 -29 -108 -37 -159 -18 -326 -13 -433 15 -102 25 -244 89 -260 116
-15 26 28 146 86 242 144 239 297 395 460 472 103 49 175 65 318 74 144 9 234
5 340 -16z m-66 -568 c156 -119 247 -304 238 -483 -1 -24 -12 -44 -35 -67 -84
-84 -381 -65 -442 29 -21 32 -14 58 35 116 82 99 122 216 124 361 1 110 -3
107 80 44z m-1757 -121 c43 -20 150 -62 238 -94 235 -84 290 -117 304 -181 20
-87 -36 -235 -141 -374 -84 -112 -296 -317 -523 -507 -115 -96 -229 -195 -251
-220 -49 -53 -106 -166 -129 -257 -38 -149 -71 -203 -128 -213 -25 -5 -28 -2
-42 46 -41 146 -58 381 -53 716 7 358 37 518 137 725 101 207 257 358 408 394
53 13 90 6 180 -35z m836 -366 c73 -20 105 -23 290 -23 l208 0 9 -36 c23 -86
109 -162 222 -200 l65 -21 -28 -92 c-58 -195 -110 -478 -110 -601 -1 -111 -85
-238 -167 -251 -87 -14 -119 -89 -62 -146 28 -28 34 -30 78 -24 66 10 144 50
186 96 20 22 38 40 40 40 10 0 122 -200 144 -258 62 -162 15 -378 -131 -603
-94 -146 -145 -263 -166 -382 -6 -40 -8 -42 -41 -41 -19 0 -76 6 -127 12 -50
7 -177 16 -281 22 -210 10 -330 33 -513 95 -139 48 -325 139 -440 217 -179
120 -393 358 -482 535 l-26 51 24 16 c40 26 81 111 131 264 31 95 57 158 78
185 46 61 239 220 247 204 17 -29 41 -193 49 -332 5 -82 14 -168 21 -190 38
-134 166 -275 248 -275 35 0 71 44 71 86 0 31 -7 43 -50 82 -58 53 -89 98
-100 148 l-8 35 93 -7 94 -7 30 31 c33 32 38 56 20 95 -15 34 -39 43 -143 56
-49 6 -94 15 -99 20 -5 5 -15 53 -22 107 -8 54 -24 140 -36 191 l-23 93 133
127 c74 71 137 129 141 131 4 2 10 -8 14 -22 3 -14 27 -55 52 -92 53 -77 68
-116 78 -198 9 -72 38 -106 89 -106 38 0 72 29 82 72 7 28 17 30 72 13 25 -8
74 18 89 47 12 23 13 36 4 62 -10 33 -18 38 -95 70 -22 9 -69 40 -105 69 -77
62 -119 132 -127 211 -5 49 -3 58 26 100 50 72 110 205 122 271 16 86 17 88
35 81 9 -3 52 -16 97 -28z m1283 -290 c207 -357 372 -807 446 -1218 20 -107
23 -158 22 -350 0 -192 -3 -239 -22 -322 -67 -303 -207 -464 -428 -493 -74
-10 -256 12 -416 50 -77 19 -142 36 -145 38 -2 3 3 38 12 78 18 87 62 183 137
300 75 115 100 166 139 284 18 55 34 102 36 104 6 8 112 -100 150 -152 32 -43
35 -52 29 -90 -4 -23 -23 -70 -41 -105 -49 -87 -47 -130 7 -158 18 -9 40 -13
58 -9 30 7 78 58 100 106 l12 25 45 -23 c61 -30 107 -30 138 2 37 36 34 86 -6
119 -17 14 -36 26 -43 26 -19 0 -48 35 -117 140 -59 90 -182 224 -277 301 -37
30 -45 43 -67 122 -29 102 -47 139 -120 257 -70 112 -105 216 -105 312 0 40 3
83 6 96 6 21 10 18 42 -30 77 -115 219 -220 351 -259 57 -17 129 -85 179 -169
41 -69 78 -96 117 -86 35 9 65 45 65 79 0 71 -131 247 -223 300 -23 13 -67 32
-97 42 -81 26 -108 42 -168 99 -64 60 -115 135 -152 227 -45 109 -46 119 -10
245 l33 113 73 12 c40 6 96 24 126 39 29 16 56 29 60 29 3 1 28 -36 54 -81z
m-2265 -2004 c54 -39 116 -82 138 -95 40 -22 41 -24 41 -73 -1 -118 -95 -216
-209 -216 -75 0 -161 56 -192 124 -16 36 -19 69 -19 260 l0 219 72 -73 c40
-40 116 -106 169 -146z m466 -252 c54 -22 128 -47 166 -58 37 -10 67 -22 67
-25 0 -11 -71 -41 -109 -46 -82 -11 -171 39 -212 118 -20 39 -22 49 -14 49 2
0 49 -17 102 -38z"/>
</g>
</svg>
