<?xml version="1.0" standalone="no"?>
<!DOCTYPE svg PUBLIC "-//W3C//DTD SVG 20010904//EN"
 "http://www.w3.org/TR/2001/REC-SVG-20010904/DTD/svg10.dtd">
<svg version="1.0" xmlns="http://www.w3.org/2000/svg"
 width="512.000000pt" height="512.000000pt" viewBox="0 0 512.000000 512.000000"
 preserveAspectRatio="xMidYMid meet">

<g transform="translate(0.000000,512.000000) scale(0.100000,-0.100000)"
fill="" stroke="none">
<path d="M1046 4784 c-186 -45 -347 -208 -391 -396 -22 -96 -22 -3561 0 -3657
35 -148 148 -289 285 -353 41 -20 99 -41 128 -47 36 -7 304 -11 827 -11 l775
0 0 105 0 104 -782 3 -783 3 -56 26 c-79 37 -131 88 -165 161 l-29 63 0 1775
0 1775 28 60 c36 78 85 127 161 162 l61 28 885 3 c628 2 902 0 945 -8 105 -20
193 -89 237 -185 21 -46 23 -66 26 -247 l4 -198 104 0 105 0 -3 218 c-3 194
-6 223 -25 275 -58 156 -178 274 -333 329 l-65 23 -940 2 c-786 1 -950 -1
-999 -13z"/>
<path d="M3265 3511 c-50 -21 -56 -39 -111 -368 -43 -258 -57 -319 -71 -327
-40 -22 -121 -109 -148 -157 -54 -101 -55 -106 -55 -739 0 -633 1 -638 55
-739 27 -48 108 -135 148 -157 14 -8 28 -69 71 -328 50 -295 56 -320 80 -345
l26 -26 420 0 420 0 26 26 c24 25 30 50 80 345 43 259 57 320 71 328 42 23
123 111 151 164 16 31 35 81 41 110 7 35 11 246 11 630 0 625 -1 630 -55 731
-27 48 -108 135 -148 157 -14 8 -28 69 -71 328 -50 295 -56 320 -80 345 l-26
26 -408 2 c-224 1 -416 -2 -427 -6z m700 -223 c7 -34 65 -384 65 -397 0 -8
-103 -11 -350 -11 -247 0 -350 3 -350 11 0 13 58 363 65 397 l5 22 280 0 280
0 5 -22z m181 -644 c48 -23 100 -87 113 -139 15 -61 15 -1109 0 -1170 -6 -24
-26 -62 -45 -83 -63 -74 -50 -72 -534 -72 -484 0 -471 -2 -534 72 -19 21 -39
59 -45 83 -7 29 -11 224 -11 588 0 603 1 615 62 674 67 65 50 63 526 63 381 0
438 -2 468 -16z m-116 -1695 c0 -13 -58 -363 -65 -396 l-5 -23 -280 0 -280 0
-5 23 c-7 33 -65 383 -65 396 0 8 103 11 350 11 247 0 350 -3 350 -11z"/>
<path d="M1710 960 l0 -110 318 2 317 3 0 105 0 105 -317 3 -318 2 0 -110z"/>
</g>
</svg>
