<?xml version="1.0" standalone="no"?>
<!DOCTYPE svg PUBLIC "-//W3C//DTD SVG 20010904//EN"
 "http://www.w3.org/TR/2001/REC-SVG-20010904/DTD/svg10.dtd">
<svg version="1.0" xmlns="http://www.w3.org/2000/svg"
 width="512.000000pt" height="512.000000pt" viewBox="0 0 512.000000 512.000000"
 preserveAspectRatio="xMidYMid meet">

<g transform="translate(0.000000,512.000000) scale(0.100000,-0.100000)"
fill="" stroke="none">
<path d="M2479 5107 c-118 -44 -167 -106 -193 -246 l-12 -64 -79 -21 c-106
-28 -225 -77 -321 -132 -42 -24 -79 -44 -81 -44 -2 0 -30 17 -61 38 -71 48
-111 62 -177 62 -103 0 -190 -51 -237 -137 -54 -99 -44 -208 27 -308 19 -28
35 -54 35 -59 0 -5 -31 -70 -68 -145 -41 -83 -79 -176 -97 -238 l-28 -103 -36
-6 c-134 -22 -208 -67 -253 -153 -23 -44 -28 -66 -28 -126 0 -157 92 -248 281
-279 35 -6 37 -9 54 -74 10 -37 28 -95 41 -129 l23 -62 -266 -3 c-265 -3 -265
-3 -284 -27 -18 -22 -19 -49 -19 -712 l0 -688 -299 -3 c-285 -3 -301 -4 -327
-24 -15 -11 -37 -33 -48 -48 -20 -26 -21 -42 -24 -352 l-3 -324 25 -25 c32
-32 70 -32 101 0 l25 24 0 301 0 300 625 0 625 0 0 -575 0 -575 -625 0 -625 0
0 128 c0 121 -1 130 -23 150 -31 29 -77 29 -106 -2 -22 -23 -22 -30 -19 -174
3 -164 8 -179 72 -226 27 -21 36 -21 701 -21 665 0 674 0 701 21 15 11 37 33
48 48 21 27 21 37 21 651 0 614 0 624 -21 651 -11 15 -33 37 -48 48 -26 20
-42 21 -327 24 l-299 3 0 639 0 640 248 0 248 0 17 -29 c24 -40 22 -49 -18
-106 -71 -100 -81 -209 -27 -308 47 -86 134 -137 237 -137 66 0 106 14 177 62
31 21 59 38 61 38 3 0 36 -18 73 -40 91 -53 198 -98 314 -130 l94 -27 12 -64
c7 -35 17 -75 22 -89 21 -54 71 -107 126 -136 l56 -29 0 -142 0 -142 -302 -3
c-299 -3 -303 -3 -336 -26 -70 -50 -67 -19 -67 -697 0 -678 -3 -647 67 -697
l33 -23 675 0 675 0 33 23 c70 50 67 19 67 697 0 678 3 647 -67 697 -33 23
-37 23 -330 26 l-298 3 0 143 0 144 54 31 c83 46 132 132 148 260 3 21 15 27
98 51 116 32 223 77 314 130 37 22 70 40 73 40 2 0 30 -17 61 -38 71 -48 111
-62 177 -62 133 0 235 83 266 218 17 71 -1 144 -52 221 -44 67 -45 72 -22 112
l17 29 248 0 248 0 0 -640 0 -639 -299 -3 c-285 -3 -301 -4 -327 -24 -15 -11
-37 -33 -48 -48 -21 -27 -21 -37 -21 -651 0 -614 0 -624 21 -651 11 -15 33
-37 48 -48 27 -21 36 -21 701 -21 665 0 674 0 701 21 15 11 37 33 48 48 21 27
21 37 21 651 0 614 0 624 -21 651 -11 15 -33 37 -48 48 -26 20 -42 21 -327 24
l-299 3 0 688 c0 663 -1 690 -19 712 -19 24 -19 24 -285 27 l-265 3 23 62 c12
34 31 92 41 129 17 65 19 68 54 74 134 22 208 67 253 153 23 44 28 66 28 126
0 157 -92 248 -281 279 l-36 6 -28 103 c-18 62 -56 155 -97 238 -37 75 -68
140 -68 145 0 5 16 31 35 59 71 99 80 198 29 302 -43 89 -133 143 -239 143
-67 0 -106 -14 -179 -63 l-58 -39 -38 21 c-49 27 -81 27 -108 -2 -34 -36 -29
-81 11 -110 98 -74 156 -75 262 -4 90 60 137 64 191 14 47 -43 55 -96 22 -149
-80 -127 -82 -132 -82 -178 0 -37 10 -63 53 -137 59 -102 100 -201 132 -319
12 -43 25 -87 30 -96 20 -38 77 -69 153 -83 113 -22 146 -51 146 -131 0 -75
-44 -114 -145 -129 -115 -16 -146 -47 -186 -184 -39 -135 -69 -208 -131 -316
-42 -72 -52 -98 -52 -135 0 -46 2 -51 82 -178 33 -53 25 -106 -22 -149 -54
-50 -101 -46 -190 13 -109 73 -125 72 -309 -20 -95 -47 -190 -87 -255 -105
-57 -16 -114 -37 -128 -46 -37 -24 -61 -70 -74 -144 -15 -82 -35 -116 -76
-136 -40 -19 -68 -19 -108 0 -42 20 -62 56 -76 137 -13 73 -37 119 -74 143
-14 9 -71 30 -128 46 -67 18 -156 56 -254 105 -183 93 -200 94 -310 20 -89
-59 -136 -63 -190 -13 -47 43 -55 96 -22 149 79 126 80 129 80 178 0 40 -8 64
-51 137 -61 106 -91 179 -130 314 -40 137 -71 168 -186 184 -101 15 -145 54
-145 129 0 80 33 109 146 131 76 14 133 45 153 83 5 9 18 53 30 96 32 117 73
217 131 318 44 74 52 98 52 138 0 49 -1 52 -80 178 -33 53 -25 106 22 149 54
50 101 46 190 -13 110 -74 127 -73 310 20 98 49 187 87 254 105 57 16 114 37
128 46 37 24 61 70 74 143 6 37 19 79 28 94 17 30 67 58 102 58 35 0 85 -28
102 -58 8 -15 21 -58 28 -95 7 -37 22 -82 34 -100 26 -40 96 -76 163 -84 43
-5 54 -2 72 16 27 27 28 82 2 105 -11 10 -41 23 -67 30 l-48 12 -13 68 c-22
121 -62 180 -157 228 -51 26 -148 33 -197 15z m701 -4382 l0 -575 -620 0 -620
0 0 575 0 575 620 0 620 0 0 -575z m1790 0 l0 -575 -625 0 -625 0 0 575 0 575
625 0 625 0 0 -575z"/>
<path d="M2162 1100 c-14 -14 -22 -33 -22 -55 0 -22 8 -41 22 -55 21 -19 34
-20 248 -20 214 0 227 1 248 20 14 14 22 33 22 55 0 22 -8 41 -22 55 -21 19
-34 20 -248 20 -214 0 -227 -1 -248 -20z"/>
<path d="M2162 780 c-14 -14 -22 -33 -22 -55 0 -22 8 -41 22 -55 21 -19 33
-20 398 -20 365 0 377 1 398 20 14 14 22 33 22 55 0 22 -8 41 -22 55 -21 19
-33 20 -398 20 -365 0 -377 -1 -398 -20z"/>
<path d="M2162 460 c-14 -14 -22 -33 -22 -55 0 -22 8 -41 22 -55 21 -19 33
-20 398 -20 365 0 377 1 398 20 14 14 22 33 22 55 0 22 -8 41 -22 55 -21 19
-33 20 -398 20 -365 0 -377 -1 -398 -20z"/>
<path d="M3945 1095 c-14 -13 -25 -36 -25 -50 0 -14 11 -37 25 -50 l24 -25
226 0 226 0 24 25 c14 13 25 36 25 50 0 14 -11 37 -25 50 l-24 25 -226 0 -226
0 -24 -25z"/>
<path d="M3945 775 c-14 -13 -25 -36 -25 -50 0 -14 11 -37 25 -50 l24 -25 376
0 376 0 24 25 c14 13 25 36 25 50 0 14 -11 37 -25 50 l-24 25 -376 0 -376 0
-24 -25z"/>
<path d="M3945 455 c-14 -13 -25 -36 -25 -50 0 -14 11 -37 25 -50 l24 -25 376
0 376 0 24 25 c14 13 25 36 25 50 0 14 -11 37 -25 50 l-24 25 -376 0 -376 0
-24 -25z"/>
<path d="M2390 4514 c-240 -46 -423 -139 -590 -300 -149 -144 -254 -321 -307
-521 -23 -87 -26 -116 -26 -268 0 -152 3 -181 26 -268 53 -200 158 -377 307
-521 143 -138 287 -221 477 -274 91 -25 112 -27 283 -27 162 0 195 3 270 23
193 53 342 137 484 273 459 439 462 1144 6 1583 -142 136 -287 220 -472 272
-81 23 -116 27 -263 29 -93 2 -181 1 -195 -1z m357 -159 c368 -78 650 -352
738 -717 25 -102 30 -259 11 -364 -69 -395 -358 -696 -749 -779 -88 -19 -286
-19 -374 0 -370 78 -647 349 -740 723 -23 92 -23 322 0 414 93 372 367 642
737 724 78 17 294 17 377 -1z"/>
<path d="M1864 3699 c-18 -20 -19 -39 -19 -274 0 -235 1 -254 19 -274 22 -25
73 -28 102 -7 16 12 20 31 24 137 l5 123 84 -128 c47 -70 93 -131 102 -137 28
-15 65 -11 90 10 l24 19 0 257 0 257 -24 19 c-28 23 -69 24 -99 3 -21 -14 -22
-23 -22 -130 0 -63 -3 -114 -7 -114 -5 1 -42 51 -83 113 -41 61 -83 119 -92
129 -25 25 -80 23 -104 -3z"/>
<path d="M2439 3701 l-24 -19 0 -257 0 -257 24 -19 c20 -16 40 -19 131 -19
105 0 109 1 129 26 49 62 5 124 -88 124 l-39 0 -4 201 c-3 197 -3 201 -27 220
-30 24 -72 24 -102 0z"/>
<path d="M2860 3700 c-19 -19 -20 -33 -20 -275 0 -242 1 -256 20 -275 12 -12
33 -20 54 -20 51 0 76 36 76 111 l0 59 58 0 c83 0 157 39 196 103 51 83 36
197 -36 264 -44 42 -90 53 -213 53 -102 0 -117 -2 -135 -20z m258 -162 c10
-22 10 -32 1 -50 -17 -33 -28 -38 -81 -38 l-48 0 0 60 0 61 57 -3 c52 -3 59
-6 71 -30z"/>
<path d="M375 1095 c-14 -13 -25 -36 -25 -50 0 -14 11 -37 25 -50 l24 -25 226
0 226 0 24 25 c14 13 25 36 25 50 0 14 -11 37 -25 50 l-24 25 -226 0 -226 0
-24 -25z"/>
<path d="M375 775 c-14 -13 -25 -36 -25 -50 0 -14 11 -37 25 -50 l24 -25 376
0 376 0 24 25 c32 31 32 69 0 100 l-24 25 -376 0 -376 0 -24 -25z"/>
<path d="M375 455 c-14 -13 -25 -36 -25 -50 0 -14 11 -37 25 -50 l24 -25 376
0 376 0 24 25 c32 31 32 69 0 100 l-24 25 -376 0 -376 0 -24 -25z"/>
</g>
</svg>
