<?xml version="1.0" standalone="no"?>
<!DOCTYPE svg PUBLIC "-//W3C//DTD SVG 20010904//EN"
 "http://www.w3.org/TR/2001/REC-SVG-20010904/DTD/svg10.dtd">
<svg version="1.0" xmlns="http://www.w3.org/2000/svg"
 width="512.000000pt" height="512.000000pt" viewBox="0 0 512.000000 512.000000"
 preserveAspectRatio="xMidYMid meet">

<g transform="translate(0.000000,512.000000) scale(0.100000,-0.100000)"
fill="" stroke="none">
<path d="M745 5015 l-25 -24 0 -295 0 -294 -167 -4 c-164 -3 -169 -4 -235 -35
-93 -44 -151 -100 -196 -191 l-37 -76 0 -1376 0 -1376 37 -76 c45 -91 103
-147 196 -191 l67 -32 632 -3 631 -3 56 -59 c180 -196 180 -485 -1 -680 l-55
-60 -384 0 -384 0 0 -80 0 -80 1680 0 1680 0 0 80 0 80 -384 0 -384 0 -55 60
c-181 195 -181 484 -1 680 l56 59 632 3 632 3 76 37 c91 45 147 103 191 196
l32 67 0 1375 0 1375 -32 67 c-44 93 -100 151 -191 196 l-76 37 -168 4 -168 3
0 294 0 295 -25 24 -24 25 -1791 0 -1791 0 -24 -25z m3495 -1255 l0 -1120
-1680 0 -1680 0 0 1120 0 1120 1680 0 1680 0 0 -1120z m-3520 -375 l0 -856 25
-24 24 -25 1791 0 1791 0 24 25 25 24 0 856 0 855 136 0 c78 0 154 -5 178 -12
55 -16 138 -99 154 -154 9 -31 12 -306 12 -1138 l0 -1096 -2320 0 -2320 0 0
1096 c0 832 3 1107 12 1138 15 51 99 137 148 153 19 6 99 11 178 12 l142 1 0
-855z m4160 -1841 c0 -78 -5 -154 -12 -178 -16 -55 -99 -138 -154 -154 -60
-18 -4248 -18 -4308 0 -55 16 -138 99 -154 154 -7 24 -12 100 -12 178 l0 136
2320 0 2320 0 0 -136z m-1630 -513 c0 -5 -6 -14 -13 -20 -24 -19 -87 -166
-102 -237 -19 -88 -19 -180 0 -268 15 -71 78 -218 102 -237 7 -6 13 -15 13
-20 0 -5 -301 -9 -690 -9 -389 0 -690 4 -690 9 0 5 6 14 13 20 24 19 87 166
102 237 19 88 19 180 0 268 -15 71 -78 218 -102 237 -7 6 -13 15 -13 20 0 5
301 9 690 9 389 0 690 -4 690 -9z"/>
<path d="M1065 4695 l-25 -24 0 -256 0 -255 80 0 80 0 0 200 0 200 200 0 200
0 0 80 0 80 -255 0 -256 0 -24 -25z"/>
<path d="M3520 4640 l0 -80 200 0 200 0 0 -200 0 -200 80 0 80 0 0 255 0 256
-25 24 -24 25 -256 0 -255 0 0 -80z"/>
<path d="M2377 4389 c-388 -45 -732 -220 -1024 -522 -104 -107 -103 -112 34
-247 159 -155 278 -242 453 -330 451 -226 988 -226 1444 2 175 87 332 204 484
361 59 61 72 81 72 107 0 26 -13 46 -72 107 -296 305 -641 480 -1030 522 -109
12 -259 12 -361 0z m298 -164 c237 -62 393 -291 358 -529 -28 -194 -168 -351
-358 -401 -251 -65 -513 94 -580 350 -89 343 237 669 580 580z m-635 -89 c0
-2 -15 -29 -34 -59 -59 -99 -81 -186 -81 -317 0 -131 23 -220 82 -317 18 -31
31 -58 28 -61 -9 -10 -217 98 -305 158 -48 34 -126 97 -172 140 l-83 80 83 80
c104 98 228 184 362 250 96 46 120 56 120 46z m1175 -54 c124 -62 254 -153
350 -244 l80 -78 -80 -78 c-45 -42 -122 -105 -172 -140 -91 -62 -299 -170
-309 -160 -2 3 9 27 26 54 69 111 102 272 83 403 -14 95 -43 179 -83 244 -17
27 -30 51 -30 53 0 9 44 -8 135 -54z"/>
<path d="M2485 4071 c-92 -24 -173 -90 -215 -176 -19 -41 -24 -66 -24 -135 -1
-78 2 -90 33 -148 38 -70 70 -100 145 -140 43 -22 64 -26 136 -26 72 0 93 4
136 26 75 40 107 70 145 140 31 58 34 70 33 148 0 72 -4 93 -26 136 -39 75
-70 107 -137 143 -65 34 -164 49 -226 32z m138 -165 c103 -43 128 -177 48
-257 -112 -113 -296 -12 -267 146 18 94 128 150 219 111z"/>
<path d="M1040 3105 l0 -256 25 -24 24 -25 256 0 255 0 0 80 0 80 -200 0 -200
0 0 200 0 200 -80 0 -80 0 0 -255z"/>
<path d="M3920 3160 l0 -200 -200 0 -200 0 0 -80 0 -80 255 0 256 0 24 25 25
24 0 256 0 255 -80 0 -80 0 0 -200z"/>
<path d="M4560 1440 l0 -80 80 0 80 0 0 80 0 80 -80 0 -80 0 0 -80z"/>
</g>
</svg>
